<svg xmlns="http://www.w3.org/2000/svg" version="1.1" width="844.00" height="801.00"><rect id="backgroundrect" width="100%" height="100%" x="0" y="0" fill="none" stroke="none"/>

<g class="currentLayer" style=""><title>Layer 1</title><path fill="#edf6fa" d="   M 593.03 357.69   Q 522.60 407.29 441.85 439.11   Q 359.38 471.61 272.31 483.74   C 238.37 488.47 208.05 488.60 176.25 485.22   Q 157.02 483.18 137.90 477.81   Q 138.10 423.22 137.97 368.97   Q 137.97 368.87 137.64 362.05   C 137.48 358.79 137.99 355.14 137.99 352.31   Q 138.01 282.65 138.01 213.00   C 138.00 182.41 160.85 158.50 190.38 153.36   Q 194.62 152.62 204.94 152.62   Q 233.22 152.61 262.43 152.52   A 0.94 0.94 0.0 0 0 263.37 151.58   Q 263.29 108.60 263.35 65.25   C 263.36 58.75 262.93 52.01 265.63 46.54   C 270.65 36.36 282.32 31.26 293.25 31.26   Q 369.50 31.28 445.75 31.29   C 460.46 31.29 474.54 41.58 474.53 57.49   Q 474.50 96.63 474.23 135.75   Q 474.18 143.94 474.62 152.03   A 0.50 0.50 0.0 0 0 475.12 152.50   Q 500.01 152.61 525.00 152.61   C 530.24 152.61 537.17 152.84 542.58 154.02   C 567.07 159.41 586.13 178.13 590.69 202.99   Q 591.37 206.71 591.39 217.00   Q 591.53 286.00 591.52 355.00   Q 591.52 356.77 593.03 357.69   Z   M 301.41 152.61   L 436.21 152.61   A 1.25 1.25 0.0 0 0 437.46 151.36   L 437.46 86.88   A 20.08 19.63 0.0 0 0 417.38 67.25   L 320.24 67.25   A 20.08 19.63 0.0 0 0 300.16 86.88   L 300.16 151.36   A 1.25 1.25 0.0 0 0 301.41 152.61   Z" id="svg_7" class=""/><path fill="#d33c25" d="   M 137.90 477.81   Q 157.02 483.18 176.25 485.22   C 208.05 488.60 238.37 488.47 272.31 483.74   Q 359.38 471.61 441.85 439.11   Q 522.60 407.29 593.03 357.69   Q 636.11 327.20 674.02 289.81   A 0.53 0.52 -57.2 0 0 673.84 288.95   Q 660.66 284.12 647.36 279.15   Q 643.41 277.68 643.32 272.49   C 643.19 264.96 650.50 257.43 658.00 256.98   Q 673.01 256.08 688.02 255.33   A 0.63 0.63 0.0 0 0 688.61 254.76   C 689.80 240.88 693.62 228.86 703.01 218.22   A 0.89 0.89 0.0 0 0 702.49 216.76   Q 702.06 216.69 701.28 216.42   Q 673.18 206.56 645.08 196.69   Q 641.71 195.51 639.98 193.85   C 635.97 190.01 634.06 184.21 634.14 178.80   C 634.31 167.46 643.93 155.98 655.09 153.78   Q 658.22 153.16 665.43 153.76   Q 700.58 156.66 735.38 159.41   A 2.32 2.31 18.0 0 0 737.53 158.32   Q 743.94 148.01 753.95 140.43   C 765.40 131.76 793.84 115.08 807.56 126.53   C 822.02 138.60 811.05 172.01 804.17 185.63   C 801.36 191.19 797.51 196.09 793.46 200.88   A 1.95 1.95 0.0 0 0 793.10 202.76   Q 803.67 234.57 814.32 266.60   Q 818.13 278.02 818.29 281.12   C 819.16 297.88 801.90 313.19 785.33 306.71   Q 781.76 305.31 779.66 302.14   Q 761.75 275.14 743.95 248.19   A 0.36 0.36 0.0 0 0 743.37 248.16   C 740.85 251.21 738.51 254.63 735.75 257.17   Q 724.79 267.27 710.57 271.46   A 0.84 0.84 0.0 0 0 709.99 272.42   Q 712.79 286.95 715.34 301.47   C 716.72 309.36 711.92 316.84 704.77 319.44   C 700.27 321.08 697.60 319.18 694.99 315.37   Q 688.23 305.52 680.96 294.92   A 0.76 0.76 0.0 0 0 679.71 294.93   Q 677.19 298.71 674.11 302.62   Q 644.58 340.21 610.42 373.66   Q 601.95 381.95 593.43 390.18   C 591.83 391.73 591.47 393.08 591.47 395.43   Q 591.50 519.72 591.47 644.00   Q 591.47 661.40 591.21 663.99   C 588.13 694.37 560.24 718.70 529.71 718.09   A 0.74 0.74 0.0 0 0 528.95 718.84   Q 529.00 736.25 529.05 753.74   Q 529.09 768.61 518.73 778.72   C 498.47 798.48 462.29 785.20 461.94 755.75   Q 461.71 737.21 461.75 718.68   Q 461.75 718.15 461.22 718.15   L 273.26 718.13   A 0.46 0.46 0.0 0 0 272.80 718.59   Q 272.80 731.40 272.79 744.26   Q 272.79 758.95 271.37 764.12   C 263.96 791.17 227.62 796.46 211.59 773.90   C 206.48 766.71 205.50 759.94 205.48 750.36   Q 205.44 734.69 205.43 718.66   A 0.79 0.78 -8.3 0 0 204.42 717.91   Q 203.44 718.21 202.00 718.21   C 167.90 718.38 138.47 693.37 138.28 658.50   Q 138.01 607.63 137.97 556.88   A 0.54 0.53 -82.6 0 1 138.64 556.36   C 155.67 560.83 174.00 562.77 191.51 564.03   Q 280.00 570.42 361.88 544.88   C 445.60 518.78 518.07 470.43 577.15 405.97   Q 577.29 405.81 577.14 405.66   L 577.13 405.65   Q 576.98 405.50 576.82 405.65   C 531.78 449.20 477.90 485.15 419.58 508.35   Q 394.65 518.28 359.86 528.43   C 325.33 538.52 289.25 544.54 254.25 545.97   Q 237.58 546.65 212.25 545.69   Q 187.44 544.76 152.31 537.99   Q 121.00 531.96 95.56 514.94   C 74.39 500.79 59.55 479.09 56.24 453.66   C 52.85 427.59 66.71 403.60 86.03 387.33   C 99.93 375.62 116.11 367.61 133.07 361.51   Q 136.16 360.40 133.43 362.22   C 115.43 374.22 96.93 391.51 88.73 412.37   C 80.63 432.98 89.98 453.43 107.88 464.82   Q 121.46 473.46 137.90 477.81   Z" id="svg_9" class="" fill-opacity="1"/></g></svg>